<svg width="34" height="20" viewBox="0 0 34 20" fill="none" xmlns="http://www.w3.org/2000/svg">
<path d="M33.5659 8H25.4341C25.0493 8 24.8533 8.47111 25.1292 8.75083L29.195 12.873C29.362 13.0423 29.6379 13.0423 29.805 12.873L33.8709 8.75083C34.1467 8.47111 33.9507 8 33.5659 8Z" fill="white"/>
<path d="M10 0C15.5228 0 20 4.47715 20 10C20 15.5228 15.5228 20 10 20C4.47715 20 0 15.5228 0 10C0 4.47715 4.47715 0 10 0Z" fill="#F0F0F0"/>
<path d="M2.06718 16.0881C1.28167 15.0661 0.689365 13.8882 0.344482 12.6086H5.54675L2.06718 16.0881Z" fill="#0052B4"/>
<path d="M19.6556 12.6086C19.3107 13.8882 18.7183 15.0661 17.9329 16.0881L14.4534 12.6086H19.6556Z" fill="#0052B4"/>
<path d="M0.344482 7.39136C0.689404 6.11175 1.28171 4.93382 2.06718 3.91186L5.54663 7.39136H0.344482Z" fill="#0052B4"/>
<path d="M16.0882 17.9328C15.0662 18.7183 13.8883 19.3106 12.6086 19.6555V14.4533L16.0882 17.9328Z" fill="#0052B4"/>
<path d="M3.91187 2.06718C4.93386 1.28167 6.11179 0.689365 7.3914 0.344444V5.54663L3.91187 2.06718Z" fill="#0052B4"/>
<path d="M7.39136 19.6555C6.11175 19.3106 4.93382 18.7183 3.91187 17.9328L7.39136 14.4533V19.6555Z" fill="#0052B4"/>
<path d="M12.6086 0.344444C13.8883 0.689365 15.0662 1.28167 16.0881 2.06714L12.6086 5.54663V0.344444Z" fill="#0052B4"/>
<path d="M14.4534 7.39136L17.9329 3.91183C18.7183 4.93378 19.3107 6.11175 19.6556 7.39136H14.4534Z" fill="#0052B4"/>
<path d="M19.9154 11.3043H11.3044H11.3044V19.9154C10.8774 19.9709 10.4421 20 10 20C9.55785 20 9.12262 19.9709 8.69566 19.9154V11.3044V11.3044H0.0846484C0.0290625 10.8774 0 10.4421 0 10C0 9.55785 0.0290625 9.12262 0.0846484 8.69566H8.69559H8.69563V0.0846481C9.12262 0.0290622 9.55785 0 10 0C10.4421 0 10.8774 0.0290231 11.3043 0.0846481V8.69559V8.69563H19.9154C19.9709 9.12262 20 9.55785 20 10C20 10.4421 19.9709 10.8774 19.9154 11.3043V11.3043Z" fill="#D80027"/>
<path d="M12.6086 7.39132L17.071 2.92897C17.2762 3.13413 17.472 3.34862 17.6588 3.57097L13.8384 7.39136H12.6086V7.39132Z" fill="#D80027"/>
<path d="M7.39134 7.39136H7.39126L2.92896 2.92905C3.13411 2.72382 3.3486 2.52804 3.57095 2.34124L7.39134 6.16171V7.39136Z" fill="#D80027"/>
<path d="M7.39122 12.6086V12.6087L2.92888 17.071C2.72364 16.8659 2.52786 16.6514 2.34106 16.4291L6.16149 12.6086H7.39122V12.6086Z" fill="#D80027"/>
<path d="M12.6086 12.6087L17.071 17.0712C16.8659 17.2764 16.6514 17.4722 16.429 17.6589L12.6086 13.8385V12.6087Z" fill="#D80027"/>
</svg>
