<svg width="3676" height="1062" viewBox="0 0 3676 1062" fill="none" xmlns="http://www.w3.org/2000/svg">
<path d="M608.391 707.368C372.315 516.334 228.45 273.989 172.984 0.439947C147.678 31.2965 121.332 61.4598 94.6388 91.623C67.9459 121.439 35.7062 145.709 4.49856e-05 165.124C58.2392 392.561 106.079 461.902 304.716 622.772C584.472 848.823 1024.04 1048.87 1429.29 1061.7C1102.38 1015.24 827.481 884.533 608.391 707.368Z" fill="url(#paint0_linear_8_3127)"/>
<path d="M3067.26 707.368C3303.69 516.334 3447.2 273.988 3503.02 0.439609C3528.32 31.2962 3554.67 61.4594 3581.36 91.6226C3608.05 121.439 3640.29 145.708 3676 165.124C3617.76 392.561 3569.92 461.902 3371.28 622.772C3091.53 848.822 2651.96 1048.87 2246.71 1061.7C2573.62 1015.24 2848.52 884.533 3067.26 707.368Z" fill="url(#paint1_linear_8_3127)"/>
<defs>
<linearGradient id="paint0_linear_8_3127" x1="1429.29" y1="1061.7" x2="150.147" y2="-157.136" gradientUnits="userSpaceOnUse">
<stop stop-color="#0EA1EF"/>
<stop offset="1" stop-color="#064BCA"/>
</linearGradient>
<linearGradient id="paint1_linear_8_3127" x1="3676" y1="1061.7" x2="2396.86" y2="-157.136" gradientUnits="userSpaceOnUse">
<stop stop-color="#0EA1EF"/>
<stop offset="1" stop-color="#064BCA"/>
</linearGradient>
</defs>
</svg>
