<svg width="292" height="44" viewBox="0 0 292 44" fill="none" xmlns="http://www.w3.org/2000/svg">
<path d="M270 0C257.85 0 248 9.84962 248 21.9998C248 34.15 257.85 44 270 44C282.15 44 292 34.15 292 21.9998C291.986 9.85526 282.145 0.0136962 270 0V0ZM270 41.7997C259.065 41.7997 250.2 32.935 250.2 21.9998C250.2 11.0646 259.065 2.19986 270 2.19986C280.935 2.19986 289.8 11.0646 289.8 21.9998C289.787 32.9298 280.93 41.7873 270 41.7997V41.7997Z" fill="white"/>
<path d="M267.424 13.4719C266.966 13.0719 266.272 13.1186 265.872 13.5758C265.472 14.0334 265.519 14.7283 265.976 15.1283L273.829 21.9998L265.975 28.8717C265.518 29.2717 265.472 29.9666 265.871 30.4238C266.271 30.8814 266.966 30.9281 267.424 30.5281L276.223 22.828C276.462 22.6193 276.599 22.3172 276.599 21.9998C276.599 21.6824 276.462 21.3806 276.223 21.1716L267.424 13.4719Z" fill="white"/>
<path d="M22.0002 44C34.1504 44 44 34.1504 44 22.0002C44 9.85002 34.1504 -1.26747e-07 22.0002 -1.26747e-07C9.85002 -1.26747e-07 -1.26747e-07 9.85002 -1.26747e-07 22.0002C0.0136962 34.1447 9.85526 43.9863 22.0002 44V44ZM22.0002 2.20026C32.9354 2.20026 41.8001 11.065 41.8001 22.0002C41.8001 32.9354 32.9354 41.8001 22.0002 41.8001C11.065 41.8001 2.20026 32.9354 2.20026 22.0002C2.21275 11.0702 11.0702 2.21275 22.0002 2.20026V2.20026Z" fill="white"/>
<path d="M24.576 30.5281C25.0336 30.9281 25.7284 30.8814 26.1285 30.4242C26.5281 29.9666 26.4813 29.2717 26.0241 28.8717L18.1705 22.0002L26.0245 15.1283C26.4821 14.7283 26.5285 14.0334 26.1289 13.5762C25.7289 13.1186 25.034 13.0719 24.5764 13.4719L15.7765 21.172C15.5376 21.3807 15.4007 21.6828 15.4007 22.0002C15.4007 22.3176 15.5376 22.6194 15.7765 22.8284L24.576 30.5281Z" fill="white"/>
<circle cx="94" cy="22" r="8.5" stroke="white" stroke-width="3"/>
<circle cx="94" cy="22" r="5" fill="white"/>
<circle opacity="0.5" cx="129" cy="22" r="10" fill="white"/>
<circle opacity="0.5" cx="164" cy="22" r="10" fill="white"/>
<circle opacity="0.5" cx="199" cy="22" r="10" fill="white"/>
</svg>
